<?xml version="1.0" encoding="UTF-8" standalone="no"?>
<!-- Created with Inkscape (http://www.inkscape.org/) -->

<svg
   xmlns:dc="http://purl.org/dc/elements/1.1/"
   xmlns:cc="http://creativecommons.org/ns#"
   xmlns:rdf="http://www.w3.org/1999/02/22-rdf-syntax-ns#"
   xmlns:svg="http://www.w3.org/2000/svg"
   xmlns="http://www.w3.org/2000/svg"
   xmlns:sodipodi="http://sodipodi.sourceforge.net/DTD/sodipodi-0.dtd"
   xmlns:inkscape="http://www.inkscape.org/namespaces/inkscape"
   version="1.0"
   width="85"
   height="40"
   id="svg2429"
   inkscape:version="0.91 r13725"
   sodipodi:docname="symshape_and.svg">
  <metadata
     id="metadata3353">
    <rdf:RDF>
      <cc:Work
         rdf:about="">
        <dc:format>image/svg+xml</dc:format>
        <dc:type
           rdf:resource="http://purl.org/dc/dcmitype/StillImage" />
        <dc:title />
      </cc:Work>
    </rdf:RDF>
  </metadata>
  <sodipodi:namedview
     pagecolor="#ffffff"
     bordercolor="#666666"
     borderopacity="1"
     objecttolerance="10000"
     gridtolerance="10000"
     guidetolerance="10000"
     inkscape:pageopacity="0"
     inkscape:pageshadow="2"
     inkscape:window-width="1920"
     inkscape:window-height="1138"
     id="namedview3351"
     showgrid="true"
     inkscape:zoom="4.105"
     inkscape:cx="-26.733957"
     inkscape:cy="31.366532"
     inkscape:window-x="-8"
     inkscape:window-y="-8"
     inkscape:window-maximized="1"
     inkscape:current-layer="g4285"
     showguides="true"
     inkscape:guide-bbox="true"
     inkscape:snap-grids="true"
     inkscape:snap-to-guides="true"
     inkscape:snap-page="true"
     inkscape:snap-text-baseline="true"
     inkscape:snap-object-midpoints="true"
     inkscape:snap-midpoints="true"
     inkscape:snap-global="false"
     inkscape:snap-bbox="true"
     inkscape:bbox-paths="false"
     showborder="true"
     inkscape:showpageshadow="true">
    <inkscape:grid
       type="xygrid"
       id="grid9175"
       originy="0"
       dotted="true" />
  </sodipodi:namedview>
  <defs
     id="defs2431" />
  <g
     transform="translate(-453.7104,-577.4467)"
     id="layer1">
    <g
       transform="translate(-20.824677,8.675599)"
       id="g4267">
      <g
         id="g4285">
        <path
           d="m 494.94816,570.99864 c 7.84773,0 15.69546,0 23.54318,0 1.16264,0 2.47061,0.15972 3.92388,0.47914 1.45329,0.31941 2.90657,0.95827 4.34664,1.9165 1.45328,0.94375 2.90657,2.39565 4.35984,4.29764 1.4533,1.91652 2.47061,4.16696 3.05189,6.70779 0.58133,2.55535 0.58133,5.11069 0,7.66605 -0.58128,2.55534 -1.59859,4.79126 -3.05189,6.70778 -1.45327,1.90199 -2.90656,3.33938 -4.35984,4.31215 -1.44007,0.94373 -2.89335,1.58258 -4.34664,1.902 -1.45327,0.31942 -2.76124,0.47913 -3.92388,0.47913 -1.16261,0 -5.37712,0 -12.64355,0 -7.26641,0 -10.89963,0 -10.89963,0 0,0 0,-5.74955 0,-17.2486 l 0,-17.21958 z"
           style="font-style:normal;font-variant:normal;font-weight:normal;font-stretch:normal;letter-spacing:normal;word-spacing:normal;text-anchor:start;fill:#f6f6ff;fill-opacity:1;stroke:#000000;stroke-width:1px;stroke-linecap:square;stroke-linejoin:miter;stroke-miterlimit:10.43000031;stroke-dasharray:none;stroke-dashoffset:0;stroke-opacity:1"
           id="path2089"
           inkscape:connector-curvature="0" />
      </g>
    </g>
  </g>
</svg>
